<svg width="190" height="172" viewBox="0 0 190 172" fill="none" xmlns="http://www.w3.org/2000/svg">
<path d="M95 0C147.467 0 190 42.5329 190 95C190 126.522 174.647 154.456 151.012 171.737C152.308 166.879 153 161.771 153 156.5C153 128.282 133.192 104.73 106.835 99.2188C123.148 94.1728 135 78.9711 135 61C135 38.9086 117.091 21 95 21C72.9086 21 55 38.9086 55 61C55 78.9707 66.8511 94.1725 83.1641 99.2188C56.8077 104.731 37 128.282 37 156.5C37 161.771 37.6914 166.879 38.9873 171.737C15.3525 154.456 0 126.521 0 95C0 42.5329 42.5329 0 95 0Z" fill="#FC5E5E"/>
</svg>
