<?xml version="1.0" standalone="no"?>
<!DOCTYPE svg PUBLIC "-//W3C//DTD SVG 20010904//EN"
 "http://www.w3.org/TR/2001/REC-SVG-20010904/DTD/svg10.dtd">
<svg version="1.0" xmlns="http://www.w3.org/2000/svg"
 width="512.000000pt" height="512.000000pt" viewBox="0 0 512.000000 512.000000"
 preserveAspectRatio="xMidYMid meet">

<g transform="translate(0.000000,512.000000) scale(0.100000,-0.100000)"
fill="#000000" stroke="none">
<path d="M2492 5103 c-22 -10 -230 -241 -585 -647 -304 -347 -568 -650 -587
-674 -30 -38 -35 -51 -35 -101 0 -69 28 -114 89 -142 37 -17 71 -19 373 -19
l333 0 2 -1069 c3 -1063 3 -1070 24 -1097 11 -15 33 -37 48 -48 27 -20 39 -21
406 -21 367 0 379 1 406 21 15 11 37 33 48 48 21 27 21 34 24 1097 l2 1069
333 1 c369 1 382 3 431 63 26 32 31 46 31 96 0 52 -4 63 -35 102 -19 24 -283
327 -587 674 -379 434 -563 636 -586 648 -44 20 -93 20 -135 -1z"/>
<path d="M162 923 l3 -678 26 -56 c33 -71 87 -125 158 -158 l56 -26 2155 0
2155 0 56 26 c71 33 125 87 158 158 l26 56 3 678 3 677 -321 0 -320 0 0 -480
0 -480 -1760 0 -1760 0 0 480 0 480 -320 0 -321 0 3 -677z"/>
</g>
</svg>
